<svg width="328" height="410" viewBox="0 0 328 410" fill="none" xmlns="http://www.w3.org/2000/svg">
<g clip-path="url(#clip0_3054_25706)">
<path fill-rule="evenodd" clip-rule="evenodd" d="M90.6736 7.71647C90.7447 6.01027 90.8649 3.06791 93.3916 2.4057C96.8105 1.52124 130.718 -4.94463 178.756 7.91353C217.194 18.2023 249.313 38.8019 256.162 44.0856C303.49 80.654 329.934 138.597 327.89 193.941C325.971 245.66 318.986 273.64 295.262 320.236C276.336 357.483 232.286 394.891 189.806 404.714C153.157 413.197 119.405 410.543 90.6803 403.286C60.8147 395.292 1.20912 367.528 0.00911723 299.834C-0.752795 234.22 45.9519 125.004 248.299 178.051C246.49 154.365 239.187 138.802 235.214 130.332C234.76 129.363 234.357 128.481 234.002 127.702C227.568 113.442 207.123 82.9093 161.901 70.8049C129.247 62.0645 106.565 64.4852 93.1126 66.9674C91.8439 67.2079 90.636 66.3343 90.6408 65.0417L90.6666 8.13098C90.6622 7.98107 90.6679 7.84878 90.6736 7.71647ZM66.7769 317.691C88.8356 344.536 124.607 355.122 162.449 343.299C184.096 336.541 222.168 308.673 242.199 235.879C242.441 234.977 242.022 233.823 240.826 233.459C194.553 219.124 155.778 217.074 140.456 217.658C44.3081 221.37 51.5774 299.196 66.7769 317.691Z" fill="#FF5038"/>
</g>
<defs>
<clipPath id="clip0_3054_25706">
<rect width="328" height="410" fill="white"/>
</clipPath>
</defs>
</svg>
